<mxfile host="65bd71144e" modified="2020-12-04T08:05:17.808Z" agent="5.0 (Windows NT 10.0; Win64; x64) AppleWebKit/537.36 (KHTML, like Gecko) Code/1.51.1 Chrome/83.0.4103.122 Electron/9.3.3 Safari/537.36" version="13.10.0" etag="e7eg3Jbwh09xWgnQLrkF" type="embed">
    <diagram id="nmvrKY098R6wrDDrlyfQ" name="ページ1">
        <mxGraphModel dx="1341" dy="830" grid="1" gridSize="10" guides="1" tooltips="1" connect="1" arrows="1" fold="1" page="1" pageScale="1" pageWidth="1200" pageHeight="1920" math="0" shadow="0">
            <root>
                <mxCell id="0"/>
                <mxCell id="1" parent="0"/>
                <mxCell id="63" value="" style="edgeStyle=orthogonalEdgeStyle;rounded=0;orthogonalLoop=1;jettySize=auto;html=1;fontSize=20;" edge="1" parent="1" source="58" target="62">
                    <mxGeometry relative="1" as="geometry"/>
                </mxCell>
                <mxCell id="58" value="住所登録画面" style="html=1;fillColor=#0050ef;labelPosition=center;verticalLabelPosition=middle;verticalAlign=top;align=center;fontSize=20;outlineConnect=0;spacingTop=15;shape=mxgraph.sitemap.page;horizontal=1;labelBackgroundColor=none;spacing=10;spacingBottom=0;perimeterSpacing=0;strokeColor=#001DBC;fontColor=#ffffff;" vertex="1" parent="1">
                    <mxGeometry x="40" y="120" width="490" height="310" as="geometry"/>
                </mxCell>
                <mxCell id="65" style="edgeStyle=orthogonalEdgeStyle;rounded=0;orthogonalLoop=1;jettySize=auto;html=1;exitX=1;exitY=0.7;exitDx=0;exitDy=0;fontSize=20;entryX=0.75;entryY=1;entryDx=0;entryDy=0;entryPerimeter=0;" edge="1" parent="1" source="62" target="64">
                    <mxGeometry relative="1" as="geometry"/>
                </mxCell>
                <mxCell id="62" value="tbl" style="shape=cylinder;whiteSpace=wrap;html=1;boundedLbl=1;backgroundOutline=1;fontSize=20;fontColor=#ffffff;verticalAlign=top;strokeColor=#001DBC;fillColor=#0050ef;spacing=10;spacingTop=0;spacingBottom=0;" vertex="1" parent="1">
                    <mxGeometry x="255" y="625" width="195" height="80" as="geometry"/>
                </mxCell>
                <mxCell id="66" style="edgeStyle=orthogonalEdgeStyle;rounded=0;orthogonalLoop=1;jettySize=auto;html=1;exitX=0.25;exitY=1;exitDx=0;exitDy=0;exitPerimeter=0;entryX=1;entryY=0.3;entryDx=0;entryDy=0;fontSize=20;" edge="1" parent="1" source="64" target="62">
                    <mxGeometry relative="1" as="geometry"/>
                </mxCell>
                <mxCell id="64" value="住所一覧表示画面" style="html=1;fillColor=#0050ef;labelPosition=center;verticalLabelPosition=middle;verticalAlign=top;align=center;fontSize=20;outlineConnect=0;spacingTop=15;shape=mxgraph.sitemap.page;horizontal=1;labelBackgroundColor=none;spacing=10;spacingBottom=0;perimeterSpacing=0;strokeColor=#001DBC;fontColor=#ffffff;" vertex="1" parent="1">
                    <mxGeometry x="670" y="120" width="490" height="310" as="geometry"/>
                </mxCell>
            </root>
        </mxGraphModel>
    </diagram>
</mxfile>